<?xml version="1.0" standalone="no"?>
<!DOCTYPE svg PUBLIC "-//W3C//DTD SVG 20010904//EN"
 "http://www.w3.org/TR/2001/REC-SVG-20010904/DTD/svg10.dtd">
<svg version="1.0" xmlns="http://www.w3.org/2000/svg"
 width="836.000000pt" height="837.000000pt" viewBox="0 0 836.000000 837.000000"
 preserveAspectRatio="xMidYMid meet">
<metadata>
Created by potrace 1.15, written by Peter Selinger 2001-2017
</metadata>
<g transform="translate(0.000000,837.000000) scale(0.100000,-0.100000)"
fill="#000000" stroke="none">
<path d="M5170 8363 c-8 -3 -87 -30 -175 -60 -88 -30 -169 -59 -180 -63 -11
-5 -60 -23 -110 -39 -49 -17 -148 -51 -220 -76 -71 -25 -161 -57 -200 -70 -38
-13 -135 -47 -215 -75 -138 -49 -371 -130 -490 -170 -30 -10 -127 -44 -215
-75 -88 -31 -223 -78 -300 -105 -445 -154 -552 -191 -570 -199 -11 -5 -59 -22
-107 -37 -60 -20 -88 -34 -88 -44 0 -9 41 -38 98 -69 147 -82 269 -149 352
-193 41 -22 80 -44 85 -48 6 -4 42 -25 80 -45 39 -21 88 -48 110 -60 22 -12
67 -37 100 -55 33 -18 141 -78 240 -133 99 -54 207 -114 240 -132 33 -18 89
-49 126 -68 103 -57 156 -89 134 -83 -11 2 -180 51 -375 107 -345 98 -463 132
-525 149 -42 11 -169 47 -235 66 -64 18 -64 18 -300 84 -63 18 -214 61 -335
96 -121 34 -256 72 -300 84 -102 28 -109 30 -300 84 -355 102 -359 103 -369
54 -9 -48 -18 -91 -71 -318 -49 -210 -54 -235 -74 -330 -7 -30 -21 -91 -31
-135 -10 -44 -30 -129 -44 -190 -13 -60 -36 -159 -50 -220 -58 -252 -100 -436
-121 -535 -12 -58 -33 -148 -45 -200 -12 -52 -26 -111 -30 -130 -10 -44 -59
-262 -72 -315 -5 -22 -13 -60 -18 -85 -5 -25 -21 -94 -35 -155 -80 -341 -84
-365 -62 -365 8 0 63 27 122 60 59 33 110 60 112 60 3 0 17 8 31 18 15 11 56
35 92 54 36 19 142 78 235 130 220 122 798 444 850 472 22 12 54 30 70 40 l30
18 -24 -22 c-14 -11 -56 -49 -95 -83 -75 -67 -142 -127 -282 -253 -49 -44
-132 -118 -184 -164 -52 -45 -136 -120 -186 -166 -50 -46 -108 -97 -130 -115
-21 -17 -41 -34 -44 -38 -5 -6 -226 -206 -389 -350 -89 -78 -157 -139 -271
-242 -47 -42 -157 -141 -245 -219 -97 -87 -160 -150 -160 -161 0 -17 428 -452
1915 -1951 195 -197 360 -358 366 -358 12 0 24 681 25 1424 l0 401 20 -65 c11
-36 24 -83 31 -105 6 -22 19 -67 30 -100 15 -49 119 -412 141 -490 3 -11 31
-105 62 -210 31 -104 64 -215 72 -245 8 -30 28 -100 45 -155 16 -55 34 -115
39 -132 22 -81 28 -102 48 -168 34 -114 102 -347 112 -382 22 -79 29 -105 64
-223 20 -69 40 -138 45 -155 8 -30 33 -113 70 -236 11 -36 20 -73 20 -82 0
-24 46 -22 118 3 31 12 82 29 112 40 30 10 120 42 200 70 80 28 170 60 200 70
30 10 134 46 230 80 96 33 209 72 250 86 41 13 84 29 95 34 11 4 81 29 155 55
74 25 191 66 260 90 238 83 326 114 570 199 135 46 317 110 405 141 88 30 202
70 253 87 62 21 92 36 90 46 -2 7 -97 65 -213 128 -345 189 -636 349 -885 487
-273 151 -320 176 -417 228 -39 20 -69 39 -67 41 2 3 43 -8 91 -23 49 -14 165
-48 258 -74 94 -26 199 -56 235 -66 188 -53 251 -71 310 -89 36 -11 70 -20 76
-20 6 0 46 -11 90 -24 43 -13 113 -33 154 -45 297 -85 511 -146 675 -191 105
-29 208 -58 230 -65 22 -7 58 -17 80 -23 82 -23 221 -62 250 -71 156 -45 266
-73 278 -68 8 3 22 38 31 79 9 40 26 109 36 153 20 84 76 328 92 405 6 25 14
61 18 80 4 19 24 107 44 195 20 88 52 230 72 315 19 85 38 166 40 180 3 14 9
41 14 60 14 55 79 341 105 466 16 74 42 186 55 234 5 19 25 109 45 200 19 91
40 181 45 200 5 19 14 56 19 83 6 26 15 66 21 90 23 97 50 232 50 249 0 29
-30 21 -120 -30 -47 -27 -141 -79 -210 -117 -69 -38 -150 -83 -180 -101 -30
-17 -86 -49 -125 -69 -104 -56 -136 -74 -300 -167 -82 -46 -186 -104 -230
-128 -151 -82 -301 -167 -337 -192 -30 -20 -38 -22 -38 -8 0 6 6 10 13 10 6 0
39 26 72 58 33 31 79 73 101 92 55 48 387 344 449 401 28 26 97 88 155 139
100 87 199 177 335 300 83 75 132 118 185 164 25 21 68 59 95 85 28 25 88 80
135 121 47 41 87 77 90 80 3 3 25 23 50 45 281 249 320 285 320 304 0 8 -134
150 -298 316 -164 165 -541 545 -838 843 -1022 1030 -1134 1142 -1149 1142
-13 0 -15 -111 -15 -911 0 -821 -4 -973 -23 -872 -5 29 -45 167 -172 598 -43
143 -88 298 -101 345 -32 116 -66 235 -104 360 -34 110 -79 266 -109 373 -5
17 -26 88 -46 157 -56 195 -75 261 -90 315 -7 28 -32 109 -54 182 -23 73 -41
141 -41 151 0 10 -3 22 -7 26 -5 4 -21 56 -38 114 -31 110 -40 122 -85 105z
m-875 -2128 c46 -25 107 -59 135 -75 28 -17 52 -30 54 -30 2 0 33 -16 68 -36
34 -20 117 -65 183 -101 182 -99 223 -122 305 -168 41 -23 104 -58 140 -77 36
-19 146 -80 245 -135 99 -55 276 -153 393 -217 165 -92 213 -123 218 -141 3
-13 3 -28 0 -33 -3 -5 -6 -457 -7 -1003 -1 -547 -4 -1016 -8 -1043 l-6 -48
-185 -102 c-345 -191 -645 -359 -682 -382 -21 -13 -39 -24 -42 -24 -4 0 -133
-71 -371 -205 -60 -34 -135 -75 -165 -92 -60 -33 -211 -117 -275 -153 -22 -13
-67 -38 -100 -56 l-60 -33 -90 50 c-93 52 -104 58 -370 204 -259 143 -544 299
-635 350 -47 26 -107 60 -135 75 -355 194 -572 315 -582 323 -10 7 -13 234
-13 1072 0 999 1 1063 18 1077 15 12 258 152 417 238 100 54 903 502 1240 691
116 65 213 118 217 119 5 0 46 -20 93 -45z"/>
</g>
</svg>
